<?xml version="1.0" encoding="iso-8859-1"?>
<!-- Generator: Adobe Illustrator 16.0.0, SVG Export Plug-In . SVG Version: 6.00 Build 0)  -->
<!DOCTYPE svg PUBLIC "-//W3C//DTD SVG 1.1//EN" "http://www.w3.org/Graphics/SVG/1.1/DTD/svg11.dtd">
<svg version="1.1" id="Capa_1" xmlns="http://www.w3.org/2000/svg" xmlns:xlink="http://www.w3.org/1999/xlink" x="0px" y="0px"
	 width="530.4px" height="530.4px" viewBox="0 0 530.4 530.4" style="enable-background:new 0 0 530.4 530.4;" xml:space="preserve"
	>
<g>
	<path d="M310.08,316.119v14.361c0,13.545-10.935,24.48-24.479,24.48h-40.8c-13.546,0-24.48-10.936-24.48-24.48v-14.361L0,243.821
		V412.08c0,44.881,36.72,81.6,81.6,81.6h367.2c44.881,0,81.601-36.719,81.601-81.6V243.821L310.08,316.119z M448.8,110.161h-73.521
		c0.408-10.526-1.306-21.95-7.426-32.64c-16.319-28.56-53.04-40.8-102-40.8c-48.96,0-85.68,12.24-102,40.8
		c-6.202,10.69-7.915,22.114-7.507,32.64H81.6c-44.88,0-81.6,36.72-81.6,81.6v34.925l220.32,72.297v-17.461
		c0-13.547,10.934-24.481,24.48-24.481h40.8c13.545,0,24.479,10.934,24.479,24.481v17.461l220.32-72.297v-34.925
		C530.4,146.88,493.681,110.161,448.8,110.161z M342.476,110.161H189.067c-0.408-5.63,0.245-11.424,3.101-16.483
		c12.077-21.134,51.327-24.316,73.685-24.316c22.277,0,61.527,3.182,73.603,24.316C342.312,98.655,342.884,104.449,342.476,110.161z
		 M293.76,281.521v48.959c0,4.488-3.672,8.16-8.159,8.16h-40.8c-4.488,0-8.16-3.672-8.16-8.16v-48.959c0-4.488,3.672-8.16,8.16-8.16
		h40.8C290.088,273.361,293.76,277.033,293.76,281.521z"/>
</g>
<g>
</g>
<g>
</g>
<g>
</g>
<g>
</g>
<g>
</g>
<g>
</g>
<g>
</g>
<g>
</g>
<g>
</g>
<g>
</g>
<g>
</g>
<g>
</g>
<g>
</g>
<g>
</g>
<g>
</g>
</svg>
